# xmcd CD database file
#
# Track frame offsets:
#	150
#	19002
#	35042
#	55905
#	71520
#	85405
#	100107
#	122405
#	144425
#	159900
#	177460
#	191997
#	220277
#	242212
#
# Disc length: 3556 seconds
#
# Revision: 0
# Processed by: cddbd v1.5.2PL0 Copyright (c) Steve Scherf et al.
# Submitted via: CDex 1.70beta3
#
DISCID=c60de20e
DTITLE=B'z - MONSTER
DYEAR=1900
DGENRE=ロック
TTITLE0=ALL-OUT ATTACK
TTITLE1=SPLASH!
TTITLE2=ゆるぎないものひとつ
TTITLE3=恋のサマーセッション
TTITLE4=ケムリの世界
TTITLE5=衝動～MONSTER MiX～
TTITLE6=無言のPromise
TTITLE7=MONSTER
TTITLE8=ネテモサメテモ
TTITLE9=Happy Birthday
TTITLE10=ピエロ
TTITLE11=雨だれぶるーず
TTITLE12=明日また陽が昇るなら
TTITLE13=OCEAN～2006 MiX～
EXTD=
EXTT0=
EXTT1=
EXTT2=
EXTT3=
EXTT4=
EXTT5=
EXTT6=
EXTT7=
EXTT8=
EXTT9=
EXTT10=
EXTT11=
EXTT12=
EXTT13=
PLAYORDER=
